<svg width="512" height="512" viewBox="0 0 512 512" fill="none" xmlns="http://www.w3.org/2000/svg">
  <path d="M256 0C114.615 0 0 114.615 0 256C0 397.385 114.615 512 256 512C397.385 512 512 397.385 512 256C512 114.615 397.385 0 256 0Z" fill="#000000"/>
  <path d="M412.8 208.5L387.2 171.6L391.8 126.3L347.3 114.8L318.9 76.8L276.5 96.9L226.5 87.4L197.1 125.4L152.6 136.9L157.2 182.2L131.6 219.1L162.9 254.9L157.2 300.2L201.7 311.7L230.1 349.7L272.5 329.6L322.5 339.1L351.9 301.1L396.4 289.6L391.8 244.3L423.1 208.5H412.8Z" fill="#B7410E"/>
  <path d="M256 180C214.1 180 180 214.1 180 256C180 297.9 214.1 332 256 332C297.9 332 332 297.9 332 256C332 214.1 297.9 180 256 180Z" fill="#000000"/>
  <path d="M256 210C230.6 210 210 230.6 210 256C210 281.4 230.6 302 256 302C281.4 302 302 281.4 302 256C302 230.6 281.4 210 256 210Z" fill="#B7410E"/>
</svg>